<svg xmlns="http://www.w3.org/2000/svg" xmlns:xlink="http://www.w3.org/1999/xlink" viewBox="0 0 36 30.13"><defs><style>.cls-1{fill:none;}.cls-2{fill:#a67641;stroke:#231f20;stroke-width:1.25px;}.cls-3{fill:url(#Chrome);}.cls-4{fill:url(#radial-gradient);}.cls-5{stroke:#a67c52;stroke-width:0.82px;fill:url(#Lattice_Color_2);}.cls-5,.cls-6{stroke-miterlimit:10;}.cls-6{stroke-width:0.93px;fill:url(#radial-gradient-2);stroke:url(#radial-gradient-3);}.cls-7{fill:url(#linear-gradient);}.cls-8{fill:url(#Golden_Beryl);}.cls-9{fill:url(#linear-gradient-2);}.cls-10{fill:url(#radial-gradient-4);}.cls-11{fill:url(#linear-gradient-3);}.cls-12{fill:url(#radial-gradient-5);}.cls-13{fill:url(#Steel);}.cls-14{fill:url(#Steel_Radial);}</style><linearGradient id="Chrome" x1="1.49" y1="101.85" x2="169.33" y2="101.85" gradientUnits="userSpaceOnUse"><stop offset="0" stop-color="#e5e2df"/><stop offset="0" stop-color="#d6d7d7"/><stop offset="0" stop-color="#d1d3d4"/><stop offset="0.07" stop-color="#edeeee"/><stop offset="0.11" stop-color="#fff"/><stop offset="0.13" stop-color="#f5f5f6"/><stop offset="0.17" stop-color="#dbdcdd"/><stop offset="0.22" stop-color="#b1b2b4"/><stop offset="0.25" stop-color="#97999c"/><stop offset="0.27" stop-color="#9a9c9e"/><stop offset="0.29" stop-color="#a2a4a7"/><stop offset="0.3" stop-color="#b0b2b4"/><stop offset="0.31" stop-color="#c4c6c8"/><stop offset="0.31" stop-color="#d1d3d4"/><stop offset="0.36" stop-color="#c7c9ca"/><stop offset="0.45" stop-color="#adafb0"/><stop offset="0.55" stop-color="#838586"/><stop offset="0.65" stop-color="#58595b"/><stop offset="0.68" stop-color="#616265"/><stop offset="0.73" stop-color="#7a7c7f"/><stop offset="0.74" stop-color="#808285"/><stop offset="0.74" stop-color="#797a7d"/><stop offset="0.75" stop-color="#5a595c"/><stop offset="0.76" stop-color="#424041"/><stop offset="0.76" stop-color="#312d2f"/><stop offset="0.77" stop-color="#262324"/><stop offset="0.78" stop-color="#231f20"/><stop offset="0.79" stop-color="#4b4848"/><stop offset="0.8" stop-color="#7a7878"/><stop offset="0.81" stop-color="#a3a1a2"/><stop offset="0.83" stop-color="#c4c3c3"/><stop offset="0.84" stop-color="#dedede"/><stop offset="0.85" stop-color="#f0f0f0"/><stop offset="0.87" stop-color="#fbfbfb"/><stop offset="0.88" stop-color="#fff"/><stop offset="0.9" stop-color="#eaebec"/><stop offset="0.92" stop-color="#d0d2d3"/><stop offset="0.95" stop-color="#bebfc2"/><stop offset="0.97" stop-color="#b3b5b7"/><stop offset="1" stop-color="#afb1b4"/></linearGradient><radialGradient id="radial-gradient" cx="85.19" cy="101.91" r="72.66" gradientUnits="userSpaceOnUse"><stop offset="0" stop-color="#c3922e"/><stop offset="0.07" stop-color="#ebbb10"/><stop offset="0.17" stop-color="#eed688" stop-opacity="0.1"/><stop offset="0.2" stop-color="#f3e19c" stop-opacity="0.13"/><stop offset="0.26" stop-color="#faf0b8" stop-opacity="0.17"/><stop offset="0.35" stop-color="#fef9c8" stop-opacity="0.19"/><stop offset="0.59" stop-color="#fffbcc" stop-opacity="0.2"/></radialGradient><pattern id="Lattice_Color_2" data-name="Lattice Color 2" width="72" height="72" patternTransform="translate(104.83 9.24)" patternUnits="userSpaceOnUse" viewBox="0 0 72 72"><rect class="cls-1" width="72" height="72"/><rect x="69" y="69" width="72" height="72"/><rect x="-3" y="69" width="72" height="72"/><rect class="cls-2" x="57" y="69" width="12" height="24"/><rect class="cls-2" x="21" y="69" width="12" height="24"/><rect class="cls-2" x="39" y="60" width="12" height="15"/><rect class="cls-2" x="3" y="60" width="12" height="15"/><rect x="69" y="-3" width="72" height="72"/><rect class="cls-2" x="69" y="39" width="24" height="12"/><rect class="cls-2" x="69" y="3" width="24" height="12"/><rect class="cls-2" x="60" y="21" width="15" height="12"/><rect class="cls-2" x="60" y="57" width="15" height="12"/><rect x="-3" y="-3" width="72" height="72"/><rect class="cls-2" x="3" y="51" width="12" height="24"/><rect class="cls-2" x="21" y="33" width="12" height="24"/><rect class="cls-2" x="39" y="15" width="12" height="24"/><rect class="cls-2" x="57" y="-3" width="12" height="24"/><rect class="cls-2" x="39" y="51" width="12" height="24"/><rect class="cls-2" x="57" y="33" width="12" height="24"/><rect class="cls-2" x="3" y="15" width="12" height="24"/><rect class="cls-2" x="21" y="-3" width="12" height="24"/><rect class="cls-2" x="39" y="-12" width="12" height="15"/><rect class="cls-2" x="3" y="-12" width="12" height="15"/><rect class="cls-2" x="15" y="57" width="24" height="12"/><rect class="cls-2" x="33" y="39" width="24" height="12"/><rect class="cls-2" x="51" y="21" width="24" height="12"/><rect class="cls-2" x="51" y="57" width="24" height="12"/><rect class="cls-2" x="-3" y="39" width="24" height="12"/><rect class="cls-2" x="15" y="21" width="24" height="12"/><rect class="cls-2" x="33" y="3" width="24" height="12"/><rect class="cls-2" x="-3" y="3" width="24" height="12"/><rect class="cls-2" x="-12" y="21" width="15" height="12"/><rect class="cls-2" x="-12" y="57" width="15" height="12"/><rect class="cls-2" x="-21" y="21" width="24" height="12"/><rect class="cls-2" x="-21" y="57" width="24" height="12"/><rect class="cls-2" x="3" y="-21" width="12" height="24"/><rect class="cls-2" x="39" y="-21" width="12" height="24"/></pattern><radialGradient id="radial-gradient-2" cx="21037.49" cy="6871.71" r="36.2" gradientTransform="matrix(-0.51, -0.71, 1.9, -1.37, -2092.32, 24468.9)" gradientUnits="userSpaceOnUse"><stop offset="0" stop-color="#717046"/><stop offset="0" stop-color="#f2f6de"/><stop offset="0.59" stop-color="#e5da95"/><stop offset="1" stop-color="#dcc865"/></radialGradient><radialGradient id="radial-gradient-3" cx="21037.49" cy="6871.71" r="36.56" gradientTransform="matrix(-0.51, -0.71, 7.44, -5.37, -40175.07, 51961.2)" gradientUnits="userSpaceOnUse"><stop offset="0" stop-color="#717046"/><stop offset="0" stop-color="#f2f6de"/><stop offset="0.25" stop-color="#edecc4"/><stop offset="0.78" stop-color="#e1d383"/><stop offset="1" stop-color="#dcc865"/></radialGradient><linearGradient id="linear-gradient" x1="1948.2" y1="1966.95" x2="1960.28" y2="1966.95" gradientTransform="translate(-2330.97 -2452.7) scale(1.29 1.29)" gradientUnits="userSpaceOnUse"><stop offset="0" stop-color="#be1349"/><stop offset="0" stop-color="#b91247"/><stop offset="0" stop-color="#ac0e40"/><stop offset="0" stop-color="#960834"/><stop offset="0" stop-color="#790025"/><stop offset="0.77" stop-color="#f8aeae"/><stop offset="0.86" stop-color="#f7acad"/><stop offset="0.9" stop-color="#f5a5a9"/><stop offset="0.92" stop-color="#f09aa1"/><stop offset="0.94" stop-color="#ea8997"/><stop offset="0.96" stop-color="#e27389"/><stop offset="0.97" stop-color="#d85779"/><stop offset="0.99" stop-color="#cc3865"/><stop offset="1" stop-color="#bf144f"/><stop offset="1" stop-color="#be124e"/></linearGradient><linearGradient id="Golden_Beryl" x1="180.62" y1="86.18" x2="197.48" y2="86.18" gradientUnits="userSpaceOnUse"><stop offset="0" stop-color="#dcc865"/><stop offset="0.5" stop-color="#f2f6de"/><stop offset="0.62" stop-color="#c6c8aa"/><stop offset="0.74" stop-color="#a1a27f"/><stop offset="0.85" stop-color="#878760"/><stop offset="0.94" stop-color="#77764d"/><stop offset="1" stop-color="#717046"/></linearGradient><linearGradient id="linear-gradient-2" x1="14117.81" y1="14848.37" x2="14105.73" y2="14848.37" gradientTransform="translate(18335.38 19180.17) rotate(180) scale(1.29 1.29)" gradientUnits="userSpaceOnUse"><stop offset="0" stop-color="#790025"/><stop offset="0.74" stop-color="#f8aeae"/><stop offset="0.85" stop-color="#f7acad"/><stop offset="0.89" stop-color="#f5a5a9"/><stop offset="0.91" stop-color="#f09aa1"/><stop offset="0.94" stop-color="#ea8997"/><stop offset="0.95" stop-color="#e27389"/><stop offset="0.97" stop-color="#d85779"/><stop offset="0.99" stop-color="#cc3865"/><stop offset="1" stop-color="#bf144f"/><stop offset="1" stop-color="#be124e"/><stop offset="1" stop-color="#be1349"/></linearGradient><radialGradient id="radial-gradient-4" cx="138.08" cy="14.41" r="8.14" gradientUnits="userSpaceOnUse"><stop offset="0.61" stop-color="#dcc865"/><stop offset="1" stop-color="#f2f6de"/><stop offset="1" stop-color="#c6c8aa"/><stop offset="1" stop-color="#a1a27f"/><stop offset="1" stop-color="#878760"/><stop offset="1" stop-color="#77764d"/><stop offset="1" stop-color="#717046"/></radialGradient><linearGradient id="linear-gradient-3" x1="238.87" y1="15.88" x2="229.43" y2="0.17" gradientUnits="userSpaceOnUse"><stop offset="0" stop-color="#be1349"/><stop offset="0.13" stop-color="#be124e"/><stop offset="0.13" stop-color="#be124e"/><stop offset="0.3" stop-color="#f8aeae"/><stop offset="0.3" stop-color="#f7aaac"/><stop offset="0.31" stop-color="#f5a6a9"/><stop offset="0.68" stop-color="#790025"/></linearGradient><radialGradient id="radial-gradient-5" cx="232.28" cy="10.31" r="10.98" xlink:href="#radial-gradient-4"/><linearGradient id="Steel" x1="3.99" y1="15.06" x2="25.33" y2="15.06" gradientUnits="userSpaceOnUse"><stop offset="0" stop-color="#e5e2df"/><stop offset="0" stop-color="#ded9d6"/><stop offset="0.04" stop-color="#cfccc9"/><stop offset="0.11" stop-color="#a8a8a8"/><stop offset="0.21" stop-color="#6a7072"/><stop offset="0.26" stop-color="#465053"/><stop offset="0.37" stop-color="#878d8f"/><stop offset="0.46" stop-color="#b7babb"/><stop offset="0.53" stop-color="#d5d6d6"/><stop offset="0.57" stop-color="#e0e0e0"/><stop offset="0.63" stop-color="#d6d7d8"/><stop offset="0.73" stop-color="#bcbfc2"/><stop offset="0.86" stop-color="#92989e"/><stop offset="0.88" stop-color="#8b9298"/><stop offset="1" stop-color="#d1d3d4"/><stop offset="1" stop-color="#a7a9ac"/></linearGradient><radialGradient id="Steel_Radial" cx="416.96" cy="1141.02" r="77.2" gradientTransform="translate(-46.91 -185.1) scale(0.15 0.18)" gradientUnits="userSpaceOnUse"><stop offset="0" stop-color="#e5e2df"/><stop offset="0" stop-color="#f1efee"/><stop offset="0" stop-color="#fff"/><stop offset="0.13" stop-color="#f0f0f1"/><stop offset="0.37" stop-color="#c9cacb"/><stop offset="0.52" stop-color="#adaeb0"/><stop offset="0.6" stop-color="#a3a5a7"/><stop offset="0.74" stop-color="#898d90"/><stop offset="0.91" stop-color="#5f6769"/><stop offset="1" stop-color="#465053"/></radialGradient><symbol id="sword" data-name="sword" viewBox="0 0 243.9 159.35"><path class="cls-3" d="M158.33,45.85C140.75,53.13,111,66.94,83.81,85.55,48.14,110-5.91,157.85,2.33,157.85c6,0,69.19-20.8,112.31-50.47a385.89,385.89,0,0,0,54.69-45.64"/><path class="cls-4" d="M158.33,45.85c-14.77,6.83-29.27,14.2-43.27,22.4a348.2,348.2,0,0,0-41,26.07C61,103.94,48.36,114.13,36,124.67c-6.16,5.27-12.25,10.65-18.15,16.19-2.95,2.78-5.86,5.59-8.64,8.5-1.38,1.46-2.75,2.93-4,4.46a22.92,22.92,0,0,0-1.7,2.29,5.63,5.63,0,0,0-.51,1c0,.07,0,.18-.07-.21a1,1,0,0,0-.4-.48c-.09-.09-.27-.09-.21-.1h0l.15,0,.32-.05.63-.09a10.7,10.7,0,0,0,1.38-.29c1-.23,1.92-.43,2.89-.73l2.9-.82,2.89-.89c1.94-.59,3.86-1.23,5.77-1.88s3.84-1.31,5.74-2q11.46-4.08,22.69-8.77c7.5-3.08,14.88-6.45,22.23-9.88s14.54-7.17,21.6-11.14l5.3-3L102,113.7c3.5-2,6.84-4.33,10.22-6.53,6.73-4.5,13.25-9.34,19.66-14.29a406.79,406.79,0,0,0,37.44-31.14q-8.29,9-17.23,17.32T133.73,95.25c-3.17,2.57-6.51,4.93-9.78,7.37s-6.62,4.78-10,7-6.8,4.55-10.34,6.61l-5.25,3.17-5.34,3c-7.12,4-14.43,7.66-21.77,11.23s-14.82,6.84-22.37,9.94S33.7,149.68,26,152.41c-1.92.69-3.85,1.37-5.79,2s-3.87,1.31-5.83,1.9l-2.93.91-3,.84c-1,.3-2,.52-3,.76a12.85,12.85,0,0,1-1.6.33l-.88.11-.44.06-.23,0-.38,0A2.62,2.62,0,0,1,1,159,2.07,2.07,0,0,1,.13,158a2.23,2.23,0,0,1-.12-1,3.75,3.75,0,0,1,.14-.67A8.37,8.37,0,0,1,1,154.53a28.41,28.41,0,0,1,1.92-2.61c1.33-1.63,2.73-3.14,4.15-4.63,2.84-3,5.78-5.81,8.75-8.61,6-5.59,12.07-11,18.26-16.29C46.47,111.8,59.17,101.58,72.31,91.9a357.37,357.37,0,0,1,41.3-26.3c7.27-3.73,14.65-7.2,22.11-10.51,3.72-1.66,7.47-3.24,11.23-4.81S154.52,47.28,158.33,45.85Z"/><path class="cls-5" d="M227.67,17.19a284.71,284.71,0,0,1-29,21.4,285.27,285.27,0,0,1-32.41,18L162,50a285.54,285.54,0,0,1,61.45-39.4Z"/><polygon class="cls-6" points="135.31 19.05 187.75 91.68 195.04 86.42 142.61 13.79 135.31 19.05"/><path class="cls-7" d="M191.89,79l-.3,0c-.72,0-2,.6-7.27,4.36-2.31,1.65-3,2.22-3,3.2,0,.51.14,1,1.37,2.57,1.85,2.28,2.77,3.42,3.87,3.88,3.75,1.55,10.11-2.39,10.32-6.46.06-1.24-.46-2.26-1.29-3.87C194.9,81.44,193.77,79.24,191.89,79Z"/><path class="cls-8" d="M191.89,78.37a3.47,3.47,0,0,0-1.9.5A32.51,32.51,0,0,0,186.54,81c-1,.7-2,1.4-3,2.12a14.34,14.34,0,0,0-2.11,1.69,2.5,2.5,0,0,0-.48,3,13.67,13.67,0,0,0,1.84,2.52,23.5,23.5,0,0,0,1.92,2.19A5.16,5.16,0,0,0,188.61,94,10.05,10.05,0,0,0,197,88.47a5.11,5.11,0,0,0,.43-2.75,11,11,0,0,0-1.33-3.37c-.86-1.66-2-3.65-4-3.95-.81-.12-1.16,1.12-.34,1.24,1.58.24,2.44,1.79,3.12,3.08.75,1.45,1.68,3,1.19,4.66-.81,2.79-4,4.87-6.79,5.27a4.13,4.13,0,0,1-3.35-.8,13.66,13.66,0,0,1-1.56-1.67,29.26,29.26,0,0,1-1.91-2.41c-.53-.78-.75-1.35-.06-2.06a13.22,13.22,0,0,1,1.81-1.45c.88-.63,1.75-1.25,2.64-1.86a39.34,39.34,0,0,1,3.64-2.32l.49-.24a1.22,1.22,0,0,1,.28-.11l.31-.08c.14,0-.15,0,0,0h.37C192.72,79.74,192.71,78.45,191.89,78.37Z"/><path class="cls-9" d="M135.25,21.57l.3,0c.72,0,2-.6,7.27-4.37,2.31-1.64,3-2.21,3.05-3.19,0-.51-.15-1-1.38-2.57-1.84-2.28-2.76-3.42-3.87-3.88C136.88,6,130.52,10,130.31,14c-.06,1.24.46,2.26,1.29,3.87C132.24,19.15,133.37,21.35,135.25,21.57Z"/><path class="cls-10" d="M135.25,22.21a3.43,3.43,0,0,0,1.89-.49,30.6,30.6,0,0,0,3.45-2.15q1.53-1,3-2.13a14.21,14.21,0,0,0,2.11-1.69,2.49,2.49,0,0,0,.48-2.95,14.28,14.28,0,0,0-1.84-2.52,23.5,23.5,0,0,0-1.92-2.19,5.16,5.16,0,0,0-3.92-1.49,10,10,0,0,0-8.39,5.52,5,5,0,0,0-.43,2.75A10.59,10.59,0,0,0,131,18.23c.86,1.66,2,3.66,4,4,.81.12,1.16-1.12.34-1.24-1.58-.24-2.44-1.79-3.12-3.09s-1.68-3-1.2-4.65c.81-2.79,4-4.87,6.79-5.27a4.1,4.1,0,0,1,3.36.8,14.48,14.48,0,0,1,1.56,1.67,29.71,29.71,0,0,1,1.91,2.41c.53.78.75,1.34.06,2.06A12.73,12.73,0,0,1,143,16.33c-.87.63-1.75,1.25-2.63,1.86a37.26,37.26,0,0,1-3.64,2.31l-.49.25a2,2,0,0,1-.28.11l-.32.08c-.13,0,.15,0,0,0a2.36,2.36,0,0,1-.37,0C134.42,20.85,134.43,22.14,135.25,22.21Z"/><path class="cls-11" d="M223.94,10.59c2.56,3.84,3.83,5.76,3.91,5.89,1.45,2.42,1.61,3.07,2.48,3.37,1.5.52,3.15-.67,5-2a16.9,16.9,0,0,0,5-5c1.51-2.39,4.37-8.35,2-11-1.31-1.47-3.68-1.3-8-1a25.88,25.88,0,0,0-7.18,1.56c-3.38,1.17-5.48,1.9-5.82,3.44C221.17,6.6,221.54,7,223.94,10.59Z"/><path class="cls-12" d="M223.39,10.92l3.72,5.6c.45.69.84,1.41,1.25,2.12a4,4,0,0,0,1.43,1.68,3.78,3.78,0,0,0,3.42-.31,24,24,0,0,0,3.54-2.4,17.56,17.56,0,0,0,4.95-5.85c1.6-3,4.25-9.66-.47-11.38A8.67,8.67,0,0,0,238.15,0c-1.51,0-3,.12-4.53.27a32.52,32.52,0,0,0-7.72,1.89c-1.78.63-5.14,1.51-5.24,3.9a2.8,2.8,0,0,0,.53,1.53c.68,1.14,1.46,2.22,2.2,3.33.45.69,1.57,0,1.11-.65-.64-1-1.3-1.93-1.93-2.9a3.94,3.94,0,0,1-.62-1.2s0,.1,0-.07,0,.09,0-.06a1.5,1.5,0,0,1,.48-.82,7.56,7.56,0,0,1,2.65-1.39,37.59,37.59,0,0,1,6.56-2,35.11,35.11,0,0,1,4.46-.46,23.11,23.11,0,0,1,3.43,0,3.68,3.68,0,0,1,2,.67,3.06,3.06,0,0,1,1,2.2,12.63,12.63,0,0,1-1.52,6,16.93,16.93,0,0,1-3.93,5.47,28.53,28.53,0,0,1-2.71,2.07c-1,.69-2.31,1.8-3.59,1.6-.71-.1-1-.69-1.35-1.32s-.81-1.43-1.26-2.12c-1.23-1.87-2.48-3.74-3.72-5.6C224,9.58,222.93,10.23,223.39,10.92Z"/></symbol></defs><g id="Layer_2" data-name="Layer 2"><g id="Layer_2-2" data-name="Layer 2"><path class="cls-13" d="M9.53,24.74c1.14,1.74,3.1,5.72,5.69,5.37s4.44-5,5.48-6.88C23.7,17.85,31.19,5.54,23,1.85A19.24,19.24,0,0,0,6.28,2c-8.67,4,0,17.51,3.25,22.77,1.08,1.77,3.86.15,2.77-1.62a54.73,54.73,0,0,1-5.22-11c-1.15-3.4-2.45-6.24,1.5-7.63a17.9,17.9,0,0,1,9.16-.87c2.54.46,5.7.92,5.63,4-.06,2.47-1.57,5.51-2.47,7.75a52.81,52.81,0,0,1-4.64,9c-.32.49-1.06,2.06-1.51,2.08s-2.13-2.86-2.45-3.34C11.17,21.4,8.38,23,9.53,24.74Z"/><path class="cls-14" d="M10.72,24.25c.5.75,1,1.43,2,2.7,1.45,1.9,1.87,2.19,2.33,2.1.28-.06.47-.24,1.39-1.51s1.42-2,1.83-2.64a57.44,57.44,0,0,0,6-12A32.44,32.44,0,0,0,25.6,7.4a2.89,2.89,0,0,0-.21-2.16,3,3,0,0,0-.8-.91C21.85,1.89,15,1,15,1.28c0-.42-7.89.89-10,3a4.65,4.65,0,0,0-.88.9,2.66,2.66,0,0,0-.56,2,24.7,24.7,0,0,0,1.26,5.46A50.29,50.29,0,0,0,10.72,24.25Z"/><use width="243.9" height="159.35" transform="translate(0 1.18) scale(0.15 0.15)" xlink:href="#sword"/></g></g></svg>